<svg xmlns="http://www.w3.org/2000/svg" viewBox="-137 388.9 320 64"><style>.a{fill:#FFF;}</style><path d="M-109.3 438.2v2.9h2.9v-2.9H-109.3zM-103.6 438.2v2.9h2.9v-2.9H-103.6zM-106.4 435.3v2.9h2.9v-2.8H-106.4zM-91 410.7v-16.8h-28v16.8l9 9v2.3l-9 9v16.8h28v-16.8l-9-9v-2.3L-91 410.7zM-95 432.7v11.2h-2.9v-2.9h-2.8v2.9h-2.9v-2.9h-2.9v2.9h-2.9v-2.9h-2.8v2.9H-115v-11.2l8.6-8.6v-6.5l-8.6-8.6v-11.2h20v11.2l-8.6 8.6v6.5L-95 432.7zM-106.4 414.8L-106.4 414.8zM-109.3 411.9L-109.3 411.9zM-106.4 414.8h2.9v-2.9h-2.9V414.8zM-112.1 409L-112.1 409zM-109.3 411.9h2.9v-2.9h-2.9V411.9zM-103.6 411.9h2.9v-2.9h-2.9V411.9zM-109.3 406.2v2.9h-2.9v-2.9H-109.3zM-103.6 406.2v2.9h-2.9v-2.9H-103.6zM-100.7 406.2h2.9v2.9h-2.9V406.2zM-100.7 406.2h-2.9v-2.9h2.9V406.2zM-103.6 429.9h-2.9v-2.9h2.9V429.9z" class="a"/><path d="M-48.1 435.3v2.9h2.9v-2.8H-48.1zM-42.4 435.3v2.9h2.9v-2.8H-42.4zM-36.7 435.3v2.9h2.9v-2.8H-36.7zM-42.4 435.3v2.9h2.9v-2.8H-42.4zM-42.4 435.3v2.9h2.9v-2.8H-42.4zM-42.4 429.6v2.9h2.9v-2.9H-42.4zM-39.6 432.5v2.9h2.9v-2.9H-39.6zM-45.3 432.5v2.9h2.9v-2.9H-45.3zM-45.3 438.2v2.9h2.9v-2.9H-45.3zM-39.6 438.2v2.9h2.9v-2.9H-39.6zM-42.4 435.3v2.9h2.9v-2.8H-42.4zM-42.4 435.3v2.9h2.9v-2.8H-42.4zM-36.7 435.3v2.9h2.9v-2.8H-36.7zM-42.4 435.3v2.9h2.9v-2.8H-42.4zM-39.6 438.2v2.9h2.9v-2.9H-39.6zM-39.6 432.5v2.9h2.9v-2.9H-39.6zM-42.4 435.3v2.9h2.9v-2.8H-42.4zM-42.4 429.6v2.9h2.9v-2.9H-42.4zM-45.3 438.2v2.9h2.9v-2.9H-45.3zM-45.3 432.5v2.9h2.9v-2.9H-45.3zM-48.1 435.3v2.9h2.9v-2.8H-48.1zM-42.4 435.3v2.9h2.9v-2.8H-42.4zM-36.7 435.3v2.9h2.9v-2.8H-36.7zM-42.4 435.3v2.9h2.9v-2.8H-42.4zM-39.6 438.2v2.9h2.9v-2.9H-39.6zM-39.6 432.5v2.9h2.9v-2.9H-39.6zM-42.4 435.3v2.9h2.9v-2.8H-42.4zM-42.4 429.6v2.9h2.9v-2.9H-42.4zM-45.3 438.2v2.9h2.9v-2.9H-45.3zM-45.3 432.5v2.9h2.9v-2.9H-45.3zM-48.1 435.3v2.9h2.9v-2.8H-48.1zM-27 410.7v-16.8h-28v16.8l9 9v2.3l-9 9v16.8h28v-16.8l-9-9v-2.3L-27 410.7zM-31 432.7v5.5h-2.9v2.9H-31v2.9h-2.9v-2.9h-2.8v2.9h-2.9v-2.9h-2.9v2.9h-2.9v-2.9h-2.8v2.9H-51v-2.9h2.9v-2.9H-51v-5.4l8.6-8.6v-6.5l-8.6-8.6v-11.2h20v11.2l-8.6 8.6v6.5L-31 432.7z" class="a"/><path d="M81.8 405.6l-2-2 -2 2 2 2L81.8 405.6zM77.8 409.7l-2-2 -2 2 2 2L77.8 409.7zM73.8 413.7l-2-2 -2 2 2 2L73.8 413.7zM77.8 409.7l-2-2 -2 2 2 2L77.8 409.7zM77.8 409.7l-2-2 -2 2 2 2L77.8 409.7zM81.9 413.7l-2-2 -2 2 2 2L81.9 413.7zM77.8 413.7l-2-2 -2 2 2 2L77.8 413.7zM81.9 409.7l-2-2 -2 2 2 2L81.9 409.7zM77.8 405.6l-2-2 -2 2 2 2L77.8 405.6zM73.8 409.7l-2-2 -2 2 2 2L73.8 409.7zM77.8 409.7l-2-2 -2 2 2 2L77.8 409.7zM77.8 409.7l-2-2 -2 2 2 2L77.8 409.7zM73.8 413.7l-2-2 -2 2 2 2L73.8 413.7zM77.8 409.7l-2-2 -2 2 2 2L77.8 409.7zM73.8 409.7l-2-2 -2 2 2 2L73.8 409.7zM77.8 413.7l-2-2 -2 2 2 2L77.8 413.7zM77.8 409.7l-2-2 -2 2 2 2L77.8 409.7zM81.9 413.7l-2-2 -2 2 2 2L81.9 413.7zM77.8 405.6l-2-2 -2 2 2 2L77.8 405.6zM81.9 409.7l-2-2 -2 2 2 2L81.9 409.7zM81.8 405.6l-2-2 -2 2 2 2L81.8 405.6zM77.8 409.7l-2-2 -2 2 2 2L77.8 409.7zM73.8 413.7l-2-2 -2 2 2 2L73.8 413.7zM77.8 409.7l-2-2 -2 2 2 2L77.8 409.7zM73.8 409.7l-2-2 -2 2 2 2L73.8 409.7zM77.8 413.7l-2-2 -2 2 2 2L77.8 413.7zM77.8 409.7l-2-2 -2 2 2 2L77.8 409.7zM81.9 413.7l-2-2 -2 2 2 2L81.9 413.7zM77.8 405.6l-2-2 -2 2 2 2L77.8 405.6zM81.9 409.7l-2-2 -2 2 2 2L81.9 409.7zM81.8 405.6l-2-2 -2 2 2 2L81.8 405.6zM84.3 438l11.9 11.9 19.8-19.8 -11.9-11.9H91.4l-1.7-1.7v-12.7l-11.9-11.9 -19.8 19.8 11.9 11.9h12.7l1.7 1.7L84.3 438 84.3 438zM71.6 419.6l-3.9-3.9 2-2 -2-2 -2 2 -2-2 2-2 2 2 2-2 -2-2 2-2 2 2 2-2 -2-2 2-2 2 2 2-2 -2-2 2-2 2 2 -2 2 2 2 2-2 3.9 3.9 0 12.1 4.6 4.6 12.1 0 7.9 7.9L96.2 444.2l-7.9-7.9 0-12.1 -4.6-4.6L71.6 419.6z" class="a"/><path d="M158.1 406.5v-2.8h-2.8v2.9H158.1zM152.4 406.5v-2.8h-2.9v2.9H152.4zM146.7 406.5v-2.8h-2.8v2.9H146.7zM152.4 406.5v-2.8h-2.9v2.9H152.4zM152.4 406.5v-2.8h-2.9v2.9H152.4zM152.4 412.2v-2.9h-2.9v2.9H152.4zM149.6 409.3v-2.9h-2.9v2.9H149.6zM155.3 409.3v-2.9h-2.9v2.9H155.3zM155.3 403.6v-2.9h-2.9v2.9H155.3zM149.6 403.6v-2.9h-2.9v2.9H149.6zM152.4 406.5v-2.8h-2.9v2.9H152.4zM152.4 406.5v-2.8h-2.9v2.9H152.4zM146.7 406.5v-2.8h-2.8v2.9H146.7zM152.4 406.5v-2.8h-2.9v2.9H152.4zM149.6 403.6v-2.9h-2.9v2.9H149.6zM149.6 409.3v-2.9h-2.9v2.9H149.6zM152.4 406.5v-2.8h-2.9v2.9H152.4zM152.4 412.2v-2.9h-2.9v2.9H152.4zM155.3 403.6v-2.9h-2.9v2.9H155.3zM155.3 409.3v-2.9h-2.9v2.9H155.3zM158.1 406.5v-2.8h-2.8v2.9H158.1zM152.4 406.5v-2.8h-2.9v2.9H152.4zM146.7 406.5v-2.8h-2.8v2.9H146.7zM152.4 406.5v-2.8h-2.9v2.9H152.4zM149.6 403.6v-2.9h-2.9v2.9H149.6zM149.6 409.3v-2.9h-2.9v2.9H149.6zM152.4 406.5v-2.8h-2.9v2.9H152.4zM152.4 412.2v-2.9h-2.9v2.9H152.4zM155.3 403.6v-2.9h-2.9v2.9H155.3zM155.3 409.3v-2.9h-2.9v2.9H155.3zM158.1 406.5v-2.8h-2.8v2.9H158.1zM137 431.1v16.8h28v-16.8l-9-9v-2.3l9-9v-16.8h-28v16.8l9 9v2.3L137 431.1zM141 409.1v-5.4h2.9v-2.9H141v-2.9h2.9v2.9h2.9v-2.9h2.9v2.9h2.9v-2.9h2.9v2.9h2.9v-2.9H161v2.9h-2.9v2.9H161v5.5l-8.6 8.6v6.5l8.6 8.6v11.2h-20v-11.2l8.6-8.6v-6.5L141 409.1z" class="a"/><path d="M7.7 426l-2 2 2 2 2-2L7.7 426zM11.8 430.1l-2 2 2 2 2-2L11.8 430.1zM15.8 434.1l-2 2 2 2 2-2L15.8 434.1zM11.8 430.1l-2 2 2 2 2-2L11.8 430.1zM11.8 430.1l-2 2 2 2 2-2L11.8 430.1zM15.8 426l-2 2 2 2 2-2L15.8 426zM15.8 430.1l-2 2 2 2 2-2L15.8 430.1zM11.8 426l-2 2 2 2 2-2L11.8 426zM7.7 430.1l-2 2 2 2 2-2L7.7 430.1zM11.8 434.1l-2 2 2 2 2-2L11.8 434.1zM11.8 430.1l-2 2 2 2 2-2L11.8 430.1zM11.8 430.1l-2 2 2 2 2-2L11.8 430.1zM15.8 434.1l-2 2 2 2 2-2L15.8 434.1zM11.8 430.1l-2 2 2 2 2-2L11.8 430.1zM11.8 434.1l-2 2 2 2 2-2L11.8 434.1zM15.8 430.1l-2 2 2 2 2-2L15.8 430.1zM11.8 430.1l-2 2 2 2 2-2L11.8 430.1zM15.8 426l-2 2 2 2 2-2L15.8 426zM7.7 430.1l-2 2 2 2 2-2L7.7 430.1zM11.8 426l-2 2 2 2 2-2L11.8 426zM7.7 426l-2 2 2 2 2-2L7.7 426zM11.8 430.1l-2 2 2 2 2-2L11.8 430.1zM15.8 434.1l-2 2 2 2 2-2L15.8 434.1zM11.8 430.1l-2 2 2 2 2-2L11.8 430.1zM11.8 434.1l-2 2 2 2 2-2L11.8 434.1zM15.8 430.1l-2 2 2 2 2-2L15.8 430.1zM11.8 430.1l-2 2 2 2 2-2L11.8 430.1zM15.8 426l-2 2 2 2 2-2L15.8 426zM7.7 430.1l-2 2 2 2 2-2L7.7 430.1zM11.8 426l-2 2 2 2 2-2L11.8 426zM7.7 426l-2 2 2 2 2-2L7.7 426zM40.1 423.6l11.9-11.9 -19.8-19.8L20.3 403.8v12.7l-1.7 1.7H5.9l-11.9 11.9 19.8 19.8 11.9-11.9v-12.7l1.7-1.7H40.1zM21.7 436.3l-3.9 3.9 -2-2 -2 2 2 2 -2 2 -2-2 2-2 -2-2 -2 2 -2-2 2-2 -2-2 -2 2 -2-2 2-2 -2-2 -2 2 -2-2 2-2 2 2 2-2 -2-2 3.9-3.9 12.1 0 4.6-4.6 0-12.1 7.9-7.9L46.3 411.7l-7.9 7.9 -12.1 0 -4.6 4.6L21.7 436.3z" class="a"/></svg>